<svg width="20" height="20" viewBox="0 0 20 20" fill="none" xmlns="http://www.w3.org/2000/svg">
<circle cx="10" cy="10" r="10" fill="#4AB9FF"/>
<circle cx="10" cy="10" r="9" fill="white"/>
<path fill-rule="evenodd" clip-rule="evenodd" d="M10.1876 4C11.4736 4 12.518 5.02848 12.518 6.29495C12.518 7.56142 11.4736 8.5899 10.1876 8.5899C8.9015 8.5899 7.85712 7.56142 7.85712 6.29495C7.85712 5.02848 8.9015 4 10.1876 4V4Z" fill="#4AB9FF"/>
<path fill-rule="evenodd" clip-rule="evenodd" d="M15.2268 12.8095C14.4473 14.34 12.4519 15.4286 10.1134 15.4286C7.77481 15.4286 5.77941 14.34 5 12.8095C5.77941 11.279 7.77481 10.1905 10.1134 10.1905C12.4519 10.1905 14.4473 11.279 15.2268 12.8095Z" fill="#4AB9FF"/>
</svg>
